<svg width="162" height="170" viewBox="0 0 162 170" fill="none" xmlns="http://www.w3.org/2000/svg">
<path d="M0 73.3896H113.848C140.35 73.3896 161.834 94.8736 161.834 121.375V121.375C161.834 147.877 140.35 169.361 113.848 169.361H47.9857C21.4839 169.361 0 147.877 0 121.375V73.3896Z" fill="#3878DF"/>
<path d="M0 0H113.848C140.35 0 161.834 21.4839 161.834 47.9857V47.9857C161.834 74.4875 140.35 95.9714 113.848 95.9714H0V0Z" fill="#0656D7"/>
<path d="M0 73.3896H113.848C140.35 73.3896 161.834 94.8736 161.834 121.375V121.375C161.834 147.877 140.35 169.361 113.848 169.361H47.9857C21.4839 169.361 0 147.877 0 121.375V73.3896Z" fill="#3878DF"/>
<path d="M0 0H113.848C140.35 0 161.834 21.4839 161.834 47.9857V47.9857C161.834 74.4875 140.35 95.9714 113.848 95.9714H0V0Z" fill="#0656D7"/>
<circle cx="119.186" cy="40.7707" r="20.0724" fill="#FDFDFD"/>
<circle cx="129.216" cy="40.7677" r="10.0362" fill="#0B0B0B"/>
<circle cx="84.6799" cy="40.7707" r="20.0724" fill="#FDFDFD"/>
<circle cx="94.712" cy="40.7677" r="10.0362" fill="#0B0B0B"/>
</svg>
